<svg xmlns="http://www.w3.org/2000/svg" width="32" height="32" id="money"><path style="line-height:normal;text-indent:0;text-align:start;text-decoration-line:none;text-decoration-style:solid;text-decoration-color:#000;text-transform:none;block-progression:tb;white-space:normal;isolation:auto;mix-blend-mode:normal;solid-color:#000;solid-opacity:1" d="M11.748 1c-.34 0-.682.096-.98.287-.54.346-.859.94-.916 1.586a.5.5 0 0 0-.022.154l.002.02c0 .009-.004.017-.004.025a.5.5 0 0 0 .01.106c.042 1.572.737 3.068 1.937 4.174v1.234c-6.513 5.486-8.439 10.637-8.54 14.611h-.022v.78c0 2.04 1.424 3.816 3.576 5.05S11.862 31 15.09 31h1.821c3.228 0 6.15-.739 8.3-1.973 2.153-1.234 3.577-3.01 3.577-5.05v-.78h-.021c-.102-3.962-2.017-9.094-8.485-14.562v-1.34c1.164-1.1 1.839-2.57 1.881-4.115a.5.5 0 0 0 .01-.108c0-.008-.004-.016-.004-.025l.002-.02a.5.5 0 0 0-.022-.154c-.057-.646-.376-1.24-.916-1.586a1.817 1.817 0 0 0-1.959 0 1.95 1.95 0 0 0-.437.395 1.944 1.944 0 0 0-.438-.395A1.817 1.817 0 0 0 16 1.684c-.015-.019-.025-.041-.041-.059a1.958 1.958 0 0 0-.398-.338 1.816 1.816 0 0 0-1.485-.217 1.81 1.81 0 0 0-.472.217c-.15.096-.283.21-.399.338-.016.018-.026.04-.04.059a1.948 1.948 0 0 0-.438-.397A1.81 1.81 0 0 0 11.748 1zm-.002.992c.149 0 .299.047.44.137.28.18.475.536.478.935v.008a.5.5 0 0 0 .139.35.5.5 0 0 0 .115.092.5.5 0 0 1 .002 0 .5.5 0 0 0 .09.04.5.5 0 0 1 .002 0 .5.5 0 0 0 .093.022.5.5 0 0 0 .004 0 .5.5 0 0 0 .047.004.5.5 0 0 0 .1-.01.5.5 0 0 1 .002 0 .5.5 0 0 0 .049-.011.5.5 0 0 0 .015-.006.5.5 0 0 0 .03-.01.5.5 0 0 1 .002-.002.5.5 0 0 0 .126-.074.5.5 0 0 1 .002-.002.5.5 0 0 1 .002-.002.5.5 0 0 0 .034-.031.5.5 0 0 1 .002 0 .5.5 0 0 0 .146-.36v-.008c0-.097.011-.194.033-.285.069-.28.232-.515.444-.65a.78.78 0 0 1 .878 0c.282.18.479.54.479.943a.5.5 0 0 0 0 .033.5.5 0 0 1 0 .002.5.5 0 0 0 .016.098.5.5 0 0 0 .015.047.5.5 0 0 1 0 .002.5.5 0 0 0 .073.13.5.5 0 0 0 .033.038.5.5 0 0 0 .035.033.5.5 0 0 1 0 .002.5.5 0 0 0 .27.12.5.5 0 0 1 .001 0 .5.5 0 0 0 .05.003.5.5 0 0 0 .24-.059.5.5 0 0 1 .001 0 .5.5 0 0 0 .043-.025.5.5 0 0 0 .223-.424c0-.403.197-.762.479-.943a.78.78 0 0 1 .878 0c.28.18.474.536.477.935v.008a.5.5 0 0 0 .139.35.5.5 0 0 0 .115.092.5.5 0 0 1 .002 0 .5.5 0 0 0 .09.04.5.5 0 0 1 .002 0 .5.5 0 0 0 .093.022.5.5 0 0 0 .004 0 .5.5 0 0 0 .047.004.5.5 0 0 0 .102-.01.5.5 0 0 0 .049-.011.5.5 0 0 0 .015-.006.5.5 0 0 0 .03-.01.5.5 0 0 1 .001-.002.5.5 0 0 0 .045-.02.5.5 0 0 0 .084-.056.5.5 0 0 1 .002-.002.5.5 0 0 0 .034-.031.5.5 0 0 1 .001 0 .5.5 0 0 0 .063-.077.5.5 0 0 0 .025-.042.5.5 0 0 0 .059-.24v-.009c.003-.399.199-.756.478-.935a.777.777 0 0 1 .877 0c.276.177.469.526.477.918-.005 1.22-.492 2.393-1.373 3.318h-7.59c-.881-.925-1.368-2.098-1.373-3.318.008-.392.201-.741.477-.918a.806.806 0 0 1 .437-.137zm1.03 5.373h6.505v.89h-6.506v-.89zm-.231 1.89h6.91c6.625 5.539 8.332 10.554 8.332 14.288v.434c0 1.573-1.113 3.059-3.074 4.183-1.96 1.124-4.729 1.84-7.803 1.84h-1.82c-3.074 0-5.842-.716-7.803-1.84-1.96-1.124-3.074-2.61-3.074-4.183v-.434c0-3.734 1.707-8.749 8.332-14.287zm3.725 4.747c-3.59 0-6.483 2.92-6.483 6.498 0 3.58 2.893 6.5 6.483 6.5 3.588 0 6.517-2.917 6.517-6.5a.5.5 0 0 0-.037-.184c-.104-3.492-2.957-6.314-6.48-6.314zm0 1c3.048 0 5.517 2.46 5.517 5.498 0 3.04-2.47 5.5-5.517 5.5a5.473 5.473 0 0 1-5.483-5.5 5.473 5.473 0 0 1 5.483-5.498zm-2.442 2.027v.01h-.021v1h1.025c.934 0 1.406.441 1.576.99h-2.58v1h2.58c-.17.549-.643.992-1.576.992h-.352l-.005-.005-.006.005h-.662v.68l-.03.03.03.029v.261h.267l3.08 3.01.7-.715-2.413-2.355a2.514 2.514 0 0 0 1.993-1.932h1.363v-1h-1.363c-.078-.36-.244-.7-.479-1h1.842v-1h-4.969z" color="#000" enable-background="accumulate" font-family="sans-serif" font-weight="400" overflow="visible"></path></svg>